<svg width="140" height="30" viewBox="0 0 140 30" fill="none" xmlns="http://www.w3.org/2000/svg">
<path fill-rule="evenodd" clip-rule="evenodd" d="M94.0222 7.32518C93.3002 7.32518 92.6379 6.67742 92.6379 5.93728C92.6379 5.19749 93.3002 4.51893 94.0222 4.51893C94.7442 4.51893 95.3764 5.19749 95.3764 5.93728C95.3764 6.67742 94.7442 7.32518 94.0222 7.32518ZM94.0222 8.86706C95.5271 8.89822 96.9117 7.47952 96.9117 5.93728C96.9117 4.3954 95.5271 2.97705 94.0222 2.97705C92.5173 2.97705 91.1331 4.3954 91.1331 5.93728C91.1331 7.47952 92.5173 8.83627 94.0222 8.86706Z" fill="#C7C7C7"/>
<path fill-rule="evenodd" clip-rule="evenodd" d="M94.3539 17.0409C95.1336 17.8918 96.3687 18.8536 96.6954 19.1884C96.9223 19.3947 96.9722 19.7556 96.8216 20.0396C96.5193 20.6583 95.4625 21.6896 94.8837 22.0248C94.5818 22.2053 94.1792 22.1537 93.8772 21.9475C93.4243 21.6381 92.4667 20.6762 91.6864 19.7997C90.9315 18.9746 89.8491 17.6339 89.5979 17.1956C89.4717 16.9378 89.4217 16.68 89.5724 16.4218C89.9498 15.8546 90.9563 15.0041 91.4096 14.746C91.6612 14.5913 92.0135 14.5913 92.1896 14.8237C92.567 15.2616 93.7245 16.396 94.3539 17.0409ZM88.1521 19.7703C88.1772 21.704 88.0263 23.3544 87.2965 24.4115C86.2142 26.0103 83.698 26.5002 81.8859 25.8041C81.5591 25.6748 81.3323 25.4427 81.1562 25.1076C80.8794 24.4634 80.6278 22.9934 80.7033 22.3747C80.7536 21.8844 81.1817 21.6528 81.5085 21.7813C82.6915 22.2454 84.0251 22.22 84.1254 20.5953C84.176 19.3062 84.2075 15.5785 84.2075 13.8511C84.2075 13.5417 83.9555 13.3351 83.6288 13.3351C79.904 13.3612 80.7669 13.4898 76.4134 13.4898C76.1115 13.4898 75.8347 13.2578 75.7843 12.948C75.6585 12.2003 75.6334 10.705 75.7843 10.0862C75.8598 9.77679 76.1115 9.57053 76.4134 9.57053C79.2571 9.57053 78.7717 9.67402 83.5781 9.72558C83.9055 9.72558 84.1568 9.49354 84.1317 9.18416C84.1068 8.17829 84.0562 6.81111 84.0062 5.522C83.9807 5.18683 84.2575 4.90322 84.5598 4.87708C85.4908 4.82588 87.0005 4.85166 87.8309 4.98021C88.1329 5.00635 88.3848 5.28996 88.3597 5.62513C88.3342 6.26969 88.2842 7.32747 88.2335 9.18416C88.2335 9.51933 88.4855 9.72558 88.7871 9.72558C92.235 9.6998 91.4906 9.57053 95.718 9.57053C96.0203 9.57053 96.3222 9.80257 96.3722 10.112C96.4983 10.8081 96.4983 12.1491 96.3722 12.948C96.3222 13.2578 96.0203 13.4898 95.718 13.4898C92.2955 13.4898 93.6186 13.387 88.7116 13.3612C88.4096 13.3351 88.158 13.5417 88.158 13.8511C88.1329 15.1918 88.1521 17.6816 88.1521 19.7703ZM82.4007 16.087C82.6268 16.2933 82.6775 16.6284 82.5517 16.912C82.2749 17.5566 81.5197 18.691 80.5132 19.8254C79.8086 20.5993 78.446 21.8826 77.6659 22.2694C77.364 22.4237 77.0117 22.4756 76.7098 22.3206C76.1059 21.9858 74.9736 20.6963 74.7723 20.2322C74.6209 19.8971 74.6461 19.5877 74.9229 19.3814C76.6343 18.1435 77.9966 17.1441 79.3557 15.0554C79.5318 14.7717 79.8841 14.6944 80.186 14.7975C80.8403 15.0811 81.9726 15.7257 82.4007 16.087Z" fill="#C7C7C7"/>
<path fill-rule="evenodd" clip-rule="evenodd" d="M113.258 18.2853C114.264 18.9814 114.475 19.0226 114.929 19.3835C115.155 19.564 115.356 19.9246 115.155 20.2859C114.803 20.9305 113.997 22.0907 113.494 22.6067C113.268 22.813 112.84 22.813 112.613 22.6067L110.766 21.1733C110.54 21.0182 110.264 21.044 110.062 21.2245C107.797 23.2616 104.777 25.1953 102.211 26.0719C101.883 26.1751 101.506 26.0719 101.229 25.8657C100.6 25.3758 99.5932 24.2672 99.2913 23.7515C99.0903 23.4163 99.2413 22.8749 99.6187 22.746C101.984 21.9725 104.853 20.7092 106.74 18.9814C106.942 18.8009 106.942 18.4912 106.715 18.3368L104.299 16.738C104.022 16.5575 103.947 16.1453 104.123 15.8356C104.5 15.2168 105.281 14.314 105.608 14.0304C105.809 13.8503 106.111 13.7988 106.337 13.9535C107.268 14.4691 108.049 14.959 109.181 15.6555C109.433 15.8098 109.735 15.7067 109.936 15.4746C110.691 14.4691 111.068 13.3862 111.345 12.303C111.446 11.8905 111.169 11.5038 110.742 11.5038H106.665C106.363 11.5038 106.061 11.6585 105.859 11.8905C104.551 13.4894 103.242 15.0879 101.657 16.2739C101.355 16.4801 100.952 16.6094 100.6 16.4544C99.82 16.0934 98.6122 15.2426 98.1841 14.7785C97.9328 14.4949 98.008 14.005 98.2848 13.773C99.3164 12.9995 101.481 11.2979 103.544 8.46142C105.306 6.03751 105.627 5.16628 105.929 4.44401C106.055 4.13462 106.432 4.03149 106.734 4.13462C107.539 4.41823 108.948 5.21749 109.477 5.60422C109.728 5.81048 109.829 6.14601 109.679 6.42962C109.502 6.81636 109.257 7.12073 108.93 7.61024C108.804 7.8165 108.955 8.07469 109.181 8.07469H113.811C115.246 8.07469 116.252 9.18297 116.001 10.6787C115.649 12.9734 114.491 15.6809 113.157 17.6923C113.006 17.8727 113.057 18.1564 113.258 18.2853Z" fill="#C7C7C7"/>
<mask id="mask0" style="mask-type:alpha" maskUnits="userSpaceOnUse" x="52" y="2" width="24" height="25">
<path d="M52.2821 2.38733H75.1011V26.0539H52.2821V2.38733Z" fill="white"/>
</mask>
<g mask="url(#mask0)">
<path fill-rule="evenodd" clip-rule="evenodd" d="M73.0287 2.51056C73.8594 3.07813 74.7904 4.49614 75.042 5.06335C75.1427 5.29539 75.1175 5.55321 74.9414 5.7079C74.6897 5.93994 74.3123 6.22354 73.8594 6.32667C73.6581 6.37859 73.4568 6.27546 73.3561 6.1462C72.8525 5.502 72.0977 4.4188 71.4183 3.64533C71.217 3.4133 71.2673 3.15547 71.4938 3.00042C71.7705 2.79417 72.2235 2.51056 72.5506 2.40744C72.7016 2.35587 72.8777 2.40744 73.0287 2.51056ZM70.5124 4.13519C71.2421 4.75396 72.2235 6.1462 72.5258 6.76532C72.6264 6.97122 72.6009 7.2294 72.4248 7.38374C72.1983 7.59035 71.7705 7.87395 71.3176 7.97708C71.1163 8.02865 70.9398 7.97708 70.8144 7.79661C70.3363 7.12627 69.5559 6.01729 68.9272 5.26961C68.7759 5.08913 68.7759 4.83131 68.9772 4.67662C69.204 4.49614 69.732 4.13519 70.0343 4.03207C70.185 3.98014 70.3614 4.00628 70.5124 4.13519ZM66.4357 24.7884C66.4609 25.0978 66.3096 25.433 66.0328 25.5361C65.2779 25.8197 63.7682 25.9744 62.7868 26.0518C62.4597 26.0775 62.1829 25.8455 62.1578 25.51C62.1074 24.8142 61.9816 22.2356 61.5787 19.7606C61.5287 19.4512 61.2767 19.2961 60.9751 19.3219C58.7102 19.5024 57.452 19.5543 53.2747 20.2246C52.9472 20.2759 52.6705 20.0954 52.595 19.786C52.4188 19.0902 52.1924 17.6203 52.3182 16.8468C52.3689 16.5374 52.5698 16.3051 52.8718 16.2796L60.5219 15.6609C60.849 15.6347 61.0506 15.403 61.0251 15.0937L60.849 13.5206C60.8238 13.2112 60.547 13.0307 60.2451 13.0565C58.8611 13.1854 57.9801 13.5206 54.9858 13.7784C54.6838 13.8042 54.407 13.6237 54.3064 13.3143C54.1302 12.7983 53.9789 11.1483 54.0296 10.4006C54.0547 10.0912 54.2809 9.85917 54.5832 9.83339C57.8546 9.54979 58.7856 9.65292 59.7167 9.42088C60.0438 9.34353 60.2702 9.13728 60.2203 8.80211C60.0689 7.77047 59.767 6.58449 59.7167 5.7856C59.6915 5.45008 59.918 5.11491 60.2203 5.06335C61.1006 4.90866 62.8372 4.77975 63.4662 4.77975C63.7682 4.77975 64.0201 5.06335 64.0701 5.37273C64.1708 6.04307 64.1456 7.20326 64.3469 8.3896C64.3976 8.69898 64.6489 8.87946 64.9512 8.85367C66.3603 8.72476 68.6249 8.41538 70.2105 8.15756C70.5124 8.10599 70.7892 8.28647 70.8899 8.62128C71.066 9.18884 71.217 10.9424 71.1666 11.5096C71.1415 11.819 70.915 12.051 70.5879 12.0768C69.0023 12.2057 66.788 12.3862 65.3786 12.5147C65.0766 12.5409 64.8753 12.7729 64.9005 13.1081L65.0766 14.7069C65.1018 15.0163 65.3786 15.1706 65.6809 15.1449C68.1723 14.9386 71.4434 14.5264 72.7519 14.2941C73.0538 14.2428 73.3306 14.4487 73.4313 14.7581C73.6329 15.3511 73.6832 16.8468 73.6832 17.6976C73.6832 18.007 73.4313 18.2136 73.1293 18.2391C71.3428 18.3938 68.4491 18.6004 66.1841 18.8066C65.8822 18.8321 65.6554 19.0645 65.6809 19.3738C65.8822 21.6942 66.3603 23.8857 66.4357 24.7884Z" fill="#C7C7C7"/>
</g>
<mask id="mask1" style="mask-type:alpha" maskUnits="userSpaceOnUse" x="127" y="6" width="13" height="19">
<path d="M127.479 6.27197H140V24.7579H127.479V6.27197Z" fill="white"/>
</mask>
<g mask="url(#mask1)">
<path fill-rule="evenodd" clip-rule="evenodd" d="M139.887 16.2232C140.038 16.5845 140.038 16.9455 139.887 17.3061C139.132 19.1112 136.993 21.2257 135.03 22.5145C133.017 23.8297 130.576 24.7579 128.462 24.7579C127.934 24.7579 127.456 24.3457 127.48 23.8039C127.48 22.6437 127.732 16.4291 127.757 12.7935C127.782 10.4989 127.682 7.8687 127.682 7.09523C127.682 6.7597 127.909 6.52802 128.21 6.45032C128.94 6.24442 130.702 6.19249 131.456 6.42489C131.758 6.52802 131.985 6.7597 131.985 7.09523C131.985 7.8687 131.859 10.5758 131.809 12.7935C131.733 15.0881 131.708 17.9252 131.708 18.8272C131.708 19.2401 132.035 19.369 132.337 19.2401C134.074 18.6213 136.062 16.3783 137.119 14.2122C137.295 13.8513 137.773 13.7736 138.1 13.9798C138.779 14.4185 139.635 15.6045 139.887 16.2232Z" fill="#C7C7C7"/>
</g>
<path fill-rule="evenodd" clip-rule="evenodd" d="M124.557 7.14544C124.859 7.24857 125.059 7.46056 125.059 7.76994C125.059 9.13675 124.938 13.4631 124.884 14.1331C124.762 15.6335 124.453 17.3222 124.101 18.5598C123.379 21.1369 121.146 24.0088 118.457 25.4927C118.08 25.6731 117.752 25.6477 117.375 25.4927C116.62 25.1836 115.287 24.152 115.01 23.6621C114.808 23.3012 114.834 22.8629 115.211 22.6566C117.979 21.1351 119.868 18.9361 120.496 15.9422C120.621 15.2976 120.72 14.5542 120.767 13.7783C120.872 12.0204 120.854 9.52313 120.776 7.8079C120.751 7.47273 120.977 7.21491 121.305 7.13756C122.06 6.95709 123.802 6.88726 124.557 7.14544Z" fill="#C7C7C7"/>
<mask id="mask2" style="mask-type:alpha" maskUnits="userSpaceOnUse" x="0" y="0" width="46" height="30">
<path d="M0 0H45.9527V29.2199H0V0Z" fill="white"/>
</mask>
<g mask="url(#mask2)">
<path fill-rule="evenodd" clip-rule="evenodd" d="M45.9527 11.9824C45.9527 12.0371 45.9467 12.0897 45.9368 12.1404C45.9368 12.1445 45.9348 12.1506 45.9348 12.1548L44.709 18.0595L43.8257 22.3249L42.5345 28.5463L42.5226 28.597C42.4395 28.9544 42.1226 29.22 41.7485 29.22H14.2586C6.38265 29.22 -0.00012207 22.68 -0.00012207 14.6099C-0.00012207 6.54194 6.38265 -0.00012207 14.2586 -0.00012207H41.2334C41.675 -0.00012207 42.0315 0.367361 42.0315 0.817635C42.0315 0.872626 42.0256 0.927414 42.0157 0.979969C42.0157 0.981998 42.0157 0.98626 42.0137 0.990115L40.9265 6.2337L40.9148 6.28443C40.8314 6.64157 40.5145 6.90719 40.1402 6.90719H14.4804C14.4091 6.9011 14.3378 6.89704 14.2666 6.89704H14.2586C14.1814 6.89704 14.1042 6.9011 14.0289 6.91145C10.0624 7.033 6.86784 10.302 6.74308 14.3624C6.73318 14.4435 6.72922 14.5267 6.72922 14.6099C6.72922 14.6931 6.73318 14.7765 6.74308 14.8577C6.86784 18.916 10.0543 22.181 14.015 22.3106C14.0943 22.3208 14.1755 22.3249 14.2586 22.3249H37.5897L38.4728 18.0595H14.4943C14.4767 18.0575 14.4606 18.0557 14.4428 18.0557C14.3854 18.0494 14.326 18.0476 14.2666 18.0476H14.2586C14.2012 18.0476 14.1418 18.0494 14.0863 18.0557H14.0844C12.306 17.9621 10.894 16.4545 10.894 14.6099C10.894 12.7066 12.3991 11.1624 14.2586 11.1624H45.1546C45.5962 11.1624 45.9527 11.5299 45.9527 11.9824Z" fill="#C7C7C7"/>
</g>
</svg>
