<svg width="354" height="72" xmlns="http://www.w3.org/2000/svg" xmlns:xlink="http://www.w3.org/1999/xlink"><defs><path id="a" d="M0 .657h57.613v58.317H0z"/><path id="c" d="M.15.523H31.76v45.551H.15z"/><path id="e" d="M0 0h116.02v72H0z"/></defs><g fill="none" fill-rule="evenodd"><path d="M237.384 18.05c-1.823 0-3.495-1.597-3.495-3.42s1.672-3.495 3.495-3.495c1.823 0 3.419 1.672 3.419 3.495 0 1.823-1.596 3.42-3.42 3.42m0 3.8c3.8.076 7.296-3.42 7.296-7.22s-3.496-7.295-7.295-7.295c-3.8 0-7.294 3.495-7.294 7.295s3.495 7.143 7.294 7.22" fill="#000"/><path d="M238.221 41.99c1.969 2.096 5.087 4.466 5.912 5.291.573.508.699 1.398.319 2.097-.764 1.525-3.432 4.066-4.893 4.892-.762.445-1.779.318-2.541-.19-1.144-.763-3.561-3.133-5.532-5.293-1.905-2.033-4.638-5.336-5.273-6.416-.318-.636-.444-1.27-.064-1.907.953-1.398 3.494-3.493 4.639-4.13.635-.38 1.524-.38 1.969.192.953 1.08 3.875 3.874 5.464 5.464m-15.658 6.725c.064 4.765-.317 8.831-2.16 11.436-2.732 3.94-9.085 5.147-13.66 3.431-.825-.318-1.398-.89-1.843-1.716-.699-1.587-1.334-5.21-1.143-6.734.127-1.208 1.208-1.779 2.033-1.462 2.986 1.144 6.353 1.081 6.607-2.922.128-3.177.207-12.362.207-16.618 0-.763-.636-1.272-1.461-1.272-9.404.064-7.226.381-18.217.381-.763 0-1.461-.572-1.588-1.335-.318-1.842-.382-5.527 0-7.052.19-.762.825-1.27 1.588-1.27 7.18 0 5.954.255 18.089.382.827 0 1.461-.572 1.398-1.334a694.39 694.39 0 00-.317-9.024c-.065-.826.634-1.525 1.397-1.59 2.351-.125 6.163-.062 8.26.255a1.49 1.49 0 011.334 1.59c-.064 1.587-.19 4.194-.318 8.769 0 .826.636 1.334 1.397 1.334 8.706-.064 6.826-.382 17.5-.382.762 0 1.525.572 1.651 1.334.319 1.715.319 5.02 0 6.988-.126.763-.889 1.335-1.652 1.335-8.64 0-5.3-.253-17.69-.317-.762-.064-1.397.445-1.397 1.208-.063 3.303-.015 9.438-.015 14.585m-14.52-9.076c.57.508.698 1.334.38 2.033-.698 1.588-2.605 4.383-5.146 7.179-1.78 1.907-5.22 5.069-7.189 6.022-.762.38-1.652.508-2.414.126-1.525-.825-4.383-4.002-4.892-5.146-.382-.826-.318-1.588.38-2.096 4.321-3.05 7.76-5.513 11.192-10.66.445-.699 1.334-.89 2.097-.635 1.652.698 4.51 2.287 5.591 3.177M285.95 45.056c2.54 1.715 3.074 1.817 4.218 2.706.572.445 1.08 1.333.572 2.224-.89 1.588-2.924 4.447-4.193 5.718-.573.508-1.652.508-2.225 0l-4.663-3.532c-.57-.382-1.27-.318-1.778.126-5.718 5.02-13.344 9.785-19.823 11.945-.827.254-1.78 0-2.478-.508-1.589-1.208-4.13-3.94-4.893-5.21-.507-.826-.126-2.16.827-2.478 5.972-1.905 13.215-5.018 17.98-9.276.509-.444.509-1.208-.064-1.588l-6.099-3.94c-.7-.444-.89-1.46-.445-2.223.953-1.525 2.923-3.75 3.749-4.448.509-.444 1.27-.571 1.842-.19 2.35 1.27 4.32 2.478 7.18 4.194.635.38 1.397.126 1.906-.446 1.906-2.477 2.858-5.145 3.557-7.815.255-1.016-.444-1.969-1.524-1.969h-10.292c-.763 0-1.526.381-2.034.953-3.304 3.94-6.607 7.878-10.61 10.8-.763.51-1.78.828-2.669.446-1.969-.89-5.018-2.986-6.1-4.13-.634-.699-.444-1.906.255-2.478a61.977 61.977 0 0013.28-13.087c4.446-5.973 5.256-8.12 6.019-9.9.318-.762 1.271-1.016 2.034-.762 2.032.699 5.59 2.668 6.925 3.621.635.508.89 1.335.508 2.034-.445.953-1.065 1.703-1.89 2.91-.318.507.063 1.144.635 1.144h11.69c3.622 0 6.162 2.73 5.528 6.416-.89 5.654-3.813 12.326-7.18 17.282-.38.445-.254 1.143.254 1.461z" fill="#000"/><g transform="translate(132 5.225)"><mask id="b" fill="#fff"><use xlink:href="#a"/></mask><path d="M52.38.961c2.098 1.399 4.449 4.893 5.084 6.29.254.572.19 1.208-.254 1.589-.635.571-1.588 1.27-2.732 1.524-.508.128-1.016-.126-1.27-.444-1.272-1.588-3.178-4.257-4.893-6.163-.508-.571-.381-1.207.19-1.589.7-.508 1.843-1.207 2.669-1.461.38-.127.826 0 1.207.254m-6.353 4.003c1.842 1.525 4.32 4.956 5.083 6.481.254.508.19 1.144-.255 1.524-.572.51-1.652 1.208-2.795 1.462-.509.127-.954 0-1.27-.445-1.208-1.651-3.178-4.384-4.766-6.226-.382-.445-.382-1.08.127-1.462.572-.444 1.905-1.334 2.669-1.588.38-.128.826-.063 1.207.254M35.735 55.856c.064.762-.318 1.588-1.017 1.842-1.906.699-5.718 1.08-8.196 1.27-.825.064-1.524-.507-1.588-1.334-.127-1.715-.444-8.068-1.462-14.167-.126-.763-.762-1.145-1.524-1.081-5.718.445-8.895.572-19.441 2.224-.827.126-1.526-.318-1.717-1.08-.444-1.715-1.016-5.337-.698-7.243.128-.762.635-1.335 1.397-1.398l19.315-1.524c.826-.065 1.335-.636 1.27-1.398l-.444-3.876c-.064-.763-.763-1.207-1.525-1.144-3.494.318-5.718 1.144-13.278 1.78a1.643 1.643 0 01-1.716-1.144c-.444-1.272-.826-5.338-.699-7.18a1.502 1.502 0 011.398-1.398c8.26-.699 10.61-.444 12.961-1.016.826-.19 1.398-.699 1.271-1.525-.382-2.542-1.144-5.464-1.271-7.433-.064-.827.508-1.653 1.271-1.78 2.223-.38 6.608-.698 8.196-.698.762 0 1.398.698 1.524 1.46.255 1.653.191 4.511.7 7.435.127.762.762 1.207 1.525 1.143 3.558-.318 9.275-1.08 13.278-1.715.763-.127 1.462.318 1.716 1.143.444 1.398.826 5.719.699 7.117-.064.762-.636 1.334-1.462 1.397-4.003.318-9.593.763-13.152 1.08-.762.064-1.27.636-1.207 1.461l.445 3.94c.063.762.762 1.143 1.525 1.08 6.29-.509 14.55-1.525 17.853-2.097.762-.126 1.461.38 1.715 1.143.51 1.461.636 5.147.636 7.243 0 .763-.636 1.272-1.398 1.335-4.51.38-11.817.89-17.535 1.398-.763.063-1.335.635-1.27 1.398.507 5.717 1.715 11.117 1.905 13.342" fill="#000" mask="url(#b)"/></g><g transform="translate(321.706 14.93)"><mask id="d" fill="#fff"><use xlink:href="#c"/></mask><path d="M31.475 25.044c.382.89.382 1.78 0 2.668-1.906 4.448-7.306 9.659-12.261 12.834-5.084 3.241-11.247 5.528-16.583 5.528-1.334 0-2.542-1.015-2.479-2.35 0-2.86.636-18.173.699-27.131C.914 10.939.66 4.458.66 2.552c0-.827.572-1.398 1.334-1.59C3.838.457 8.285.329 10.191.9c.762.254 1.335.825 1.335 1.652 0 1.906-.319 8.577-.445 14.04-.192 5.655-.254 12.646-.254 14.869 0 1.017.825 1.335 1.587 1.017 4.385-1.525 9.404-7.052 12.073-12.39.444-.889 1.651-1.08 2.477-.572 1.715 1.081 3.875 4.003 4.51 5.528" fill="#000" mask="url(#d)"/></g><path d="M314.478 17.607c.762.254 1.266.776 1.266 1.539 0 3.368-.305 14.028-.442 15.679-.306 3.697-1.087 7.858-1.977 10.908-1.822 6.35-7.46 13.426-14.249 17.083-.953.445-1.778.382-2.731 0-1.906-.762-5.273-3.304-5.972-4.51-.51-.89-.445-1.97.508-2.478 6.988-3.75 11.757-9.168 13.343-16.545.317-1.589.566-3.42.684-5.332.265-4.332.22-10.485.025-14.712-.065-.826.507-1.461 1.333-1.652 1.907-.444 6.306-.616 8.212.02" fill="#000"/><g><mask id="f" fill="#fff"><use xlink:href="#e"/></mask><path d="M116.02 29.525c0 .135-.015.265-.04.39 0 .01-.005.025-.005.035L112.88 44.5l-2.23 10.51-3.26 15.33-.03.125A2.011 2.011 0 01105.405 72H36C16.115 72 0 55.885 0 36 0 16.12 16.115 0 36 0h68.105a2.016 2.016 0 011.975 2.415c0 .005 0 .015-.005.025l-2.745 12.92-.03.125a2.012 2.012 0 01-1.955 1.535H36.56a6.504 6.504 0 00-.54-.025H36c-.195 0-.39.01-.58.035-10.015.3-18.08 8.355-18.395 18.36-.025.2-.035.405-.035.61 0 .205.01.41.035.61.315 10 8.36 18.045 18.36 18.365.2.025.405.035.615.035h58.905l2.23-10.51h-60.54a1.128 1.128 0 00-.13-.01 4.213 4.213 0 00-.445-.02H36c-.145 0-.295.005-.435.02h-.005A8.5 8.5 0 0127.505 36c0-4.69 3.8-8.495 8.495-8.495h78.005c1.115 0 2.015.905 2.015 2.02" fill="#F4A739" mask="url(#f)"/></g></g></svg>