<svg xmlns="http://www.w3.org/2000/svg" xmlns:xlink="http://www.w3.org/1999/xlink" viewBox="0 0 175.9 42.15"><defs><style>.cls-1{fill:none;}.cls-2{fill:#4953a3;}.cls-3{clip-path:url(#clip-path);}.cls-4{fill:#0c0a21;}.cls-5{clip-path:url(#clip-path-2);}</style><clipPath id="clip-path" transform="translate(0 4.32)"><path class="cls-1" d="M170.9,26.23V.68h-5.32V26.23ZM153,22.9c-1.71,0-2.9-.84-2.9-2.27v-.07c0-1.68,1.4-2.59,3.67-2.59a8.26,8.26,0,0,1,3.4.7v.94C157.15,21.54,155.47,22.9,153,22.9Zm-1.61,3.68A7.22,7.22,0,0,0,157,24.2v2h5.15V15.34a8.16,8.16,0,0,0-2-6c-1.33-1.33-3.43-2.1-6.34-2.1h-5.95l-1.3,4.55h6.48c2.66,0,4,1.22,4,3.43v.31a13.48,13.48,0,0,0-4.59-.77c-4.44,0-7.56,1.89-7.56,6v.07C144.93,24.55,147.84,26.58,151.37,26.58Zm-12.55,0a7.88,7.88,0,0,0,4.2-1.08V21.19a5.39,5.39,0,0,1-2.62.66c-1.19,0-1.72-.59-1.72-1.82V12h4.41V7.47h-4.41V2.67h-5.32v4.8h-2.24V12h2.24v8.89C133.36,25.25,135.57,26.54,138.82,26.54Zm-19.34-4.48a5,5,0,0,1-4.93-5.18v-.07a4.81,4.81,0,0,1,4.86-5.11,5,5,0,0,1,4.94,5.18V17A4.8,4.8,0,0,1,119.48,22.06Zm-.07,4.59a9.85,9.85,0,0,0,10.19-9.77v-.07a10.16,10.16,0,0,0-20.3.07V17A9.75,9.75,0,0,0,119.41,26.65ZM97.82,22.06c-2.48,0-4.55-2.06-4.55-5.18v-.07c0-3.11,2.07-5.18,4.55-5.18s4.59,2.07,4.59,5.18v.07C102.41,20,100.31,22.06,97.82,22.06ZM93.34,32.83v-9a7.22,7.22,0,0,0,5.85,2.8c4.44,0,8.54-3.43,8.54-9.7v-.07c0-6.26-4.17-9.69-8.54-9.69a6.89,6.89,0,0,0-5.85,3V7.47H88V32.83Zm-8.88-6.6V7.47H79.14V26.23ZM84.6,5.4V.68H79V5.4ZM65.74,20.28a4.29,4.29,0,0,1-4.55-4.34v-.07a4.57,4.57,0,0,1,9.13,0v.07A4.33,4.33,0,0,1,65.74,20.28ZM65.11,31.9c3.64,0,6.33-.77,8.08-2.52,1.58-1.58,2.38-4,2.38-7.39V7.47H70.25V9.92a7.57,7.57,0,0,0-6-2.8c-4.31,0-8.33,3.15-8.33,8.75v.07c0,5.56,4,8.75,8.33,8.75a7.33,7.33,0,0,0,6.12-3.05v.91c0,3.36-1.71,5.11-5.35,5.11H58.63L56.81,31.9Z"/></clipPath><clipPath id="clip-path-2" transform="translate(0 4.32)"><path class="cls-2" d="M39.76,9.75v5.5H12.51a2.75,2.75,0,1,1,0-5.5l.25,0v0Z"/></clipPath></defs><g id="レイヤー_2" data-name="レイヤー 2"><g id="レイヤー_1-2" data-name="レイヤー 1"><g class="cls-3"><rect class="cls-4" x="50.87" width="125.03" height="42.15"/></g><path class="cls-2" d="M5.5,12.75A7.26,7.26,0,0,0,12.75,20h27v0L36,25.5H12.75a12.75,12.75,0,0,1,0-25.5H35.94l3.81,5.49h-27A7.27,7.27,0,0,0,5.5,12.75Z" transform="translate(0 4.32)"/><path class="cls-2" d="M39.76,9.75v5.5H12.51a2.75,2.75,0,1,1,0-5.5l.25,0v0Z" transform="translate(0 4.32)"/><g class="cls-5"><rect class="cls-2" x="4.76" y="9.07" width="40" height="15.5"/></g></g></g></svg>