<svg xmlns="http://www.w3.org/2000/svg" xmlns:xlink="http://www.w3.org/1999/xlink" viewBox="0 0 171.35 42.15"><defs><style>.cls-1{fill:none;}.cls-2{fill:#4953a3;}.cls-3{clip-path:url(#clip-path);}.cls-4{fill:#0c0a21;}.cls-5{clip-path:url(#clip-path-2);}</style><clipPath id="clip-path" transform="translate(0 4.32)"><path class="cls-1" d="M166.35,26.23V.68H161V26.23ZM148.44,22.9c-1.72,0-2.91-.84-2.91-2.27v-.07c0-1.68,1.4-2.59,3.68-2.59a8.24,8.24,0,0,1,3.39.7v.94C152.6,21.54,150.92,22.9,148.44,22.9Zm-1.61,3.68a7.24,7.24,0,0,0,5.67-2.38v2h5.14V15.34a8.16,8.16,0,0,0-2-6c-1.33-1.33-3.43-2.1-6.33-2.1h-5.95L142,11.81h6.49c2.66,0,4,1.22,4,3.43v.31a13.42,13.42,0,0,0-4.58-.77c-4.45,0-7.56,1.89-7.56,6v.07C140.39,24.55,143.29,26.58,146.83,26.58Zm-12.55,0a7.9,7.9,0,0,0,4.2-1.08V21.19a5.43,5.43,0,0,1-2.63.66c-1.19,0-1.71-.59-1.71-1.82V12h4.41V7.47h-4.41V2.67h-5.32v4.8h-2.24V12h2.24v8.89C128.82,25.25,131,26.54,134.28,26.54Zm-19.34-4.48A5,5,0,0,1,110,16.88v-.07a4.81,4.81,0,0,1,4.87-5.11,5,5,0,0,1,4.93,5.18V17A4.8,4.8,0,0,1,114.94,22.06Zm-.07,4.59a9.85,9.85,0,0,0,10.18-9.77v-.07a9.74,9.74,0,0,0-10.11-9.69,9.84,9.84,0,0,0-10.19,9.76V17A9.76,9.76,0,0,0,114.87,26.65ZM93.28,22.06c-2.49,0-4.55-2.06-4.55-5.18v-.07c0-3.11,2.06-5.18,4.55-5.18s4.58,2.07,4.58,5.18v.07C97.86,20,95.76,22.06,93.28,22.06ZM88.8,32.83v-9a7.22,7.22,0,0,0,5.84,2.8c4.45,0,8.54-3.43,8.54-9.7v-.07c0-6.26-4.16-9.69-8.54-9.69a6.88,6.88,0,0,0-5.84,3V7.47H83.48V32.83Zm-8.89-6.6V7.47H74.59V26.23ZM80.05,5.4V.68h-5.6V5.4ZM61.19,20.28a4.29,4.29,0,0,1-4.55-4.34v-.07a4.58,4.58,0,0,1,9.14,0v.07A4.34,4.34,0,0,1,61.19,20.28ZM60.56,31.9c3.64,0,6.34-.77,8.09-2.52C70.22,27.8,71,25.35,71,22V7.47H65.71V9.92a7.59,7.59,0,0,0-6.06-2.8c-4.3,0-8.33,3.15-8.33,8.75v.07c0,5.56,4,8.75,8.33,8.75a7.35,7.35,0,0,0,6.13-3.05v.91c0,3.36-1.72,5.11-5.36,5.11H54.09L52.27,31.9Z"/></clipPath><clipPath id="clip-path-2" transform="translate(0 4.32)"><path class="cls-2" d="M39.76,9.75v5.5H12.51a2.75,2.75,0,1,1,0-5.5l.25,0v0Z"/></clipPath></defs><g id="レイヤー_2" data-name="レイヤー 2"><g id="レイヤー_1-2" data-name="レイヤー 1"><g class="cls-3"><rect class="cls-4" x="46.32" width="125.03" height="42.15"/></g><path class="cls-2" d="M5.5,12.75A7.26,7.26,0,0,0,12.75,20h27v0L36,25.5H12.75a12.75,12.75,0,0,1,0-25.5H35.94l3.81,5.49h-27A7.27,7.27,0,0,0,5.5,12.75Z" transform="translate(0 4.32)"/><path class="cls-2" d="M39.76,9.75v5.5H12.51a2.75,2.75,0,1,1,0-5.5l.25,0v0Z" transform="translate(0 4.32)"/><g class="cls-5"><rect class="cls-2" x="4.76" y="9.07" width="40" height="15.5"/></g></g></g></svg>