<?xml version="1.0" encoding="UTF-8"?>
<svg width="317px" height="64px" viewBox="0 0 317 64" version="1.1" xmlns="http://www.w3.org/2000/svg" xmlns:xlink="http://www.w3.org/1999/xlink">
    <title>Group 3 Copy</title>
    <defs>
        <polygon id="path-1" points="0.214483026 0.707319504 28.840139 0.707319504 28.840139 41.6868019 0.214483026 41.6868019"></polygon>
    </defs>
    <g id="Page-1" stroke="none" stroke-width="1" fill="none" fill-rule="evenodd">
        <g id="Group-3-Copy">
            <g id="Group">
                <path d="M212.093023,14.3523798 C210.419415,14.3523798 208.885139,12.8798779 208.885139,11.1972514 C208.885139,9.51299594 210.419415,7.97045253 212.093023,7.97045253 C213.766632,7.97045253 215.231242,9.51299594 215.231242,11.1972514 C215.231242,12.8798779 213.766632,14.3523798 212.093023,14.3523798 M212.093023,17.8593449 C215.581193,17.9293865 218.790698,14.7042165 218.790698,11.1972514 C218.790698,7.69028625 215.581193,4.46511628 212.093023,4.46511628 C208.606474,4.46511628 205.395349,7.69028625 205.395349,11.1972514 C205.395349,14.7042165 208.606474,17.7893033 212.093023,17.8593449" id="Fill-14" fill="#000000"></path>
                <path d="M213.045329,35.5533136 C214.798755,37.4101068 217.577502,39.5109267 218.313469,40.2430069 C218.822985,40.6935178 218.936211,41.4819119 218.596534,42.1029287 C217.91718,43.4544614 215.53944,45.7070159 214.237344,46.4390961 C213.55799,46.8332931 212.652185,46.7206654 211.971258,46.2701545 C210.953799,45.5943881 208.799366,43.4935682 207.044367,41.5788969 C205.345982,39.7768533 202.910057,36.8485324 202.343928,35.8911967 C202.060864,35.3264938 201.947638,34.7649195 202.287315,34.2017809 C203.136508,32.9628759 205.401022,31.1029541 206.420053,30.5398155 C206.986182,30.2019323 207.778762,30.2019323 208.175052,30.7087571 C209.024244,31.6676571 211.630008,34.145467 213.045329,35.5533136 M199.091835,41.5163259 C199.148447,45.7398656 198.807198,49.3423885 197.165425,51.6528212 C194.731073,55.1442807 189.069788,56.2142441 184.993663,54.6937698 C184.257696,54.4122005 183.74818,53.9038114 183.35189,53.1732955 C182.729149,51.7654489 182.161448,48.5555587 182.332859,47.2024618 C182.446084,46.1340627 183.408503,45.6256736 184.14447,45.9072429 C186.805274,46.9224567 189.807327,46.8645786 190.032206,43.3168052 C190.145432,40.5011121 190.216198,32.3590661 190.216198,28.5860373 C190.216198,27.9087067 189.650069,27.4581958 188.914102,27.4581958 C180.535401,27.5145097 182.475963,27.7976433 172.680368,27.7976433 C172.001014,27.7976433 171.378272,27.2908185 171.266619,26.6134879 C170.981983,24.9803859 170.92537,21.7141818 171.266619,20.3626491 C171.434885,19.6868828 172.001014,19.2363719 172.680368,19.2363719 C179.07762,19.2363719 177.987823,19.4616273 188.800877,19.574255 C189.538416,19.574255 190.102972,19.0674303 190.046359,18.3916639 C189.991319,16.1954233 189.878093,13.2092243 189.763295,10.3935312 C189.706682,9.65988668 190.330996,9.04199846 191.008778,8.9856846 C193.103453,8.8714926 196.500224,8.92780646 198.370021,9.20937577 C199.049375,9.26568964 199.615503,9.8867064 199.558891,10.6187866 C199.502278,12.0266332 199.389052,14.3370658 199.275826,18.3916639 C199.275826,19.1237441 199.841955,19.574255 200.521309,19.574255 C208.278842,19.5179412 206.602473,19.2348076 216.115004,19.2348076 C216.794358,19.2348076 217.473712,19.7431966 217.586938,20.418963 C217.870002,21.9394373 217.870002,24.8677581 217.586938,26.6134879 C217.473712,27.2892542 216.794358,27.796079 216.115004,27.796079 C208.415656,27.796079 211.390976,27.5708235 200.351471,27.5145097 C199.672116,27.4581958 199.105988,27.9087067 199.105988,28.5860373 C199.049375,31.5143582 199.091835,36.9533388 199.091835,41.5163259 M186.151081,33.4697007 C186.660597,33.9202116 186.773822,34.6522918 186.490758,35.27018 C185.868017,36.6795908 184.169631,39.1574008 181.905117,41.6352107 C180.318385,43.3246266 177.253428,46.1278056 175.49843,46.9725135 C174.819076,47.3103967 174.026496,47.4230244 173.347142,47.0851412 C171.990006,46.353061 169.440855,43.5373679 168.987952,42.5237183 C168.648275,41.7900739 168.704888,41.1158718 169.327629,40.6653609 C173.177303,37.9607312 176.243832,35.778569 179.300926,31.2171461 C179.697216,30.5961294 180.489796,30.4287521 181.167578,30.6524432 C182.641084,31.27346 185.188662,32.6797423 186.151081,33.4697007" id="Fill-16" fill="#000000"></path>
                <path d="M164.971224,3.84206658 C166.856019,5.08499294 168.970861,8.18682303 169.542012,9.42818202 C169.768885,9.93757807 169.71177,10.5018322 169.311965,10.8403846 C168.742401,11.3482133 167.885676,11.9688928 166.856019,12.1945944 C166.399099,12.3074452 165.942179,12.0817436 165.715305,11.7996165 C164.571418,10.3889813 162.857968,8.01911418 161.315862,6.32635193 C160.858942,5.81852325 160.973172,5.25270179 161.488794,4.91571671 C162.115473,4.46274607 163.14513,3.84206658 163.886038,3.61636495 C164.228728,3.50351413 164.628534,3.61636495 164.971224,3.84206658 M159.259722,7.39843469 C160.916057,8.75264449 163.14513,11.7996165 163.828923,13.1538264 C164.05897,13.6052296 164.001855,14.1694837 163.60205,14.5080362 C163.088015,14.9594394 162.115473,15.5801189 161.087402,15.8058206 C160.632069,15.9186714 160.230677,15.8058206 159.945102,15.4108427 C158.859917,13.9437821 157.089351,11.5159221 155.661476,9.88115266 C155.318786,9.4861748 155.318786,8.92192072 155.775706,8.58180089 C156.289741,8.18682303 157.489156,7.39843469 158.174537,7.17273305 C158.517227,7.05988224 158.918618,7.11630764 159.259722,7.39843469 M150.005502,52.5983216 C150.064204,53.2754265 149.721514,54.0089569 149.091662,54.2346585 C147.378212,54.855338 143.951311,55.1954578 141.725411,55.3631667 C140.98133,55.4195921 140.353064,54.9117634 140.295949,54.1782331 C140.181719,52.6563144 139.896144,47.0122062 138.982304,41.595367 C138.868074,40.9166947 138.296924,40.5781423 137.611544,40.636135 C132.471192,41.0311129 129.615441,41.1439637 120.132762,42.609457 C119.390266,42.7238752 118.762001,42.3288973 118.590656,41.650225 C118.190851,40.126739 117.675229,36.9120581 117.962391,35.2192958 C118.076621,34.5406235 118.531955,34.0327949 119.218921,33.9779368 L136.581887,32.6221597 C137.325969,32.5657342 137.782889,32.0579056 137.725774,31.3808007 L137.325969,27.9388508 C137.268854,27.2601785 136.640588,26.8652006 135.955208,26.9231934 C132.812296,27.2037531 130.814857,27.9388508 124.018169,28.5015375 C123.331203,28.5595302 122.702937,28.1645524 122.474477,27.4874475 C122.074672,26.3573719 121.731982,22.7477132 121.846212,21.1113763 C121.903327,20.432704 122.417362,19.9264427 123.102743,19.8700173 C130.529281,19.2477705 132.642537,19.4750395 134.755793,18.9656434 C135.498288,18.7963672 136.012323,18.3449639 135.898093,17.6114336 C135.555403,15.3544173 134.868436,12.7572811 134.755793,11.0096608 C134.698678,10.2745631 135.212713,9.54260021 135.898093,9.42818202 C137.897119,9.09119694 141.838055,8.8090699 143.26593,8.8090699 C143.951311,8.8090699 144.522461,9.42818202 144.638277,10.1068543 C144.865151,11.5739149 144.808036,14.1130583 145.264956,16.7086271 C145.379186,17.3872994 145.951923,17.7822772 146.635716,17.7242844 C149.835744,17.4421574 154.976096,16.7650525 158.574342,16.2007984 C159.259722,16.0879476 159.887987,16.4829255 160.116447,17.2164558 C160.516252,18.4578148 160.858942,22.2947425 160.744712,23.5361015 C160.687597,24.2147738 160.175149,24.7210351 159.431067,24.7774605 C155.832821,25.0611549 150.805113,25.4561328 147.608258,25.7382598 C146.921291,25.7946852 146.464371,26.3025139 146.521486,27.0360442 L146.921291,30.5344195 C146.978407,31.2115244 147.608258,31.5500769 148.292052,31.4936515 C153.948025,31.0422482 161.372978,30.1394417 164.342958,29.631613 C165.028339,29.5187622 165.65819,29.9701655 165.885064,30.6472704 C166.341984,31.9450548 166.457801,35.2192958 166.457801,37.0797669 C166.457801,37.7584392 165.885064,38.2098425 165.20127,38.2647005 C161.144517,38.6048203 154.57629,39.0562236 149.435939,39.5076269 C148.748972,39.5624849 148.234937,40.0703136 148.292052,40.7489859 C148.748972,45.8272726 149.835744,50.6234323 150.005502,52.5983216" id="Fill-18" fill="#000000"></path>
                <g id="Group-22" transform="translate(287.553488, 10.716279)">
                    <mask id="mask-2" fill="white">
                        <use xlink:href="#path-1"></use>
                    </mask>
                    <g id="Clip-21"></g>
                    <path d="M28.5802975,22.7674096 C28.9270725,23.5675584 28.9270725,24.3677073 28.5802975,25.1678561 C26.8544125,29.1686003 21.9644052,33.8551864 17.4771043,36.7128608 C12.8747445,39.6292763 7.29438316,41.6868019 2.46030727,41.6868019 C1.25218781,41.6868019 0.159127344,40.772346 0.216656842,39.5721228 C0.216656842,37.0002158 0.791951824,23.2246375 0.84788328,15.1644081 C0.90701082,10.0777476 0.676892827,4.24809178 0.676892827,2.53348713 C0.676892827,1.78890419 1.19465831,1.27611039 1.88501229,1.10306233 C3.55336774,0.645834419 7.58043261,0.531527442 9.30631755,1.04590884 C9.99667153,1.27611039 10.514437,1.78890419 10.514437,2.53348713 C10.514437,4.24809178 10.2283876,10.2492081 10.1117305,15.1644081 C9.93914203,20.2510685 9.88321058,26.5395398 9.88321058,28.5399119 C9.88321058,29.4543678 10.6310941,29.7417228 11.31985,29.4543678 C15.2909834,28.0842716 19.8358138,23.1103305 22.2520527,18.3078499 C22.6547592,17.5077011 23.7494177,17.3362406 24.4957031,17.7934685 C26.0489996,18.7650778 28.0066005,21.3957259 28.5802975,22.7674096" id="Fill-20" fill="#000000" mask="url(#mask-2)"></path>
                </g>
                <path d="M281.944556,13.7679626 C282.635312,13.9967825 283.088372,14.4623126 283.088372,15.1456161 C283.088372,18.1565701 282.813984,27.6881017 282.689552,29.1651735 C282.413568,32.4728044 281.708455,36.192311 280.904433,38.9192128 C279.254913,44.59868 274.157992,50.9267333 268.020948,54.1964905 C267.159497,54.5941637 266.414501,54.5389313 265.55305,54.1964905 C263.830147,53.5147651 260.784756,51.2423469 260.154621,50.1629483 C259.69518,49.36918 259.75261,48.4018243 260.614061,47.9473406 C266.931372,44.5955239 271.24182,39.7492766 272.674381,33.1513737 C272.961532,31.7311123 273.188062,30.0946557 273.29335,28.3840298 C273.534238,24.5114506 273.49276,19.0071489 273.315684,15.2276756 C273.258254,14.4891397 273.775125,13.9226133 274.521716,13.7506039 C276.244619,13.3529307 280.221653,13.1998581 281.944556,13.7679626" id="Fill-23" fill="#000000"></path>
                <path d="M255.974708,36.9241547 C255.630317,37.3194523 255.743519,37.9406343 256.204302,38.2229897 C258.500244,39.747709 258.530538,39.503001 259.563712,40.2920275 C260.078705,40.6873252 260.537893,41.4779204 260.078705,42.2685156 C259.275125,43.6818614 257.438371,46.2230602 256.2904,47.3509133 C255.773813,47.8042506 254.799632,47.8042506 254.281451,47.3509133 L250.520251,44.5477513 C250.005258,44.2104935 249.37228,44.2669646 248.913091,44.6622622 C243.747221,49.1219093 236.859395,53.3588094 231.004742,55.2788263 C230.256966,55.5047107 229.395988,55.2788263 228.766198,54.8270576 C227.32964,53.754107 225.033698,51.3258503 224.344915,50.1964286 C223.885727,49.4623045 224.230118,48.274843 225.091096,47.9940562 C230.488155,46.2999237 237.03159,43.5328404 241.336482,39.747709 C241.79567,39.3524114 241.79567,38.6747584 241.279083,38.3359319 L235.768822,34.8347245 C235.137438,34.4394269 234.963648,33.5358896 235.365438,32.8582365 C236.226416,31.5029305 238.005771,29.5248738 238.753547,28.9052605 C239.212735,28.5099629 239.901518,28.3954521 240.418105,28.7342786 C242.541852,29.865269 244.321207,30.9382196 246.905736,32.4629389 C247.478127,32.8017654 248.168504,32.5758811 248.627693,32.0660727 C250.34965,29.865269 251.210628,27.4919147 251.840418,25.1216977 C252.071606,24.2165917 251.438628,23.3695254 250.464447,23.3695254 L241.164286,23.3695254 C240.475504,23.3695254 239.786721,23.7083519 239.327532,24.2165917 C236.342808,27.7193677 233.356488,31.2190064 229.740379,33.818245 C229.051597,34.2700137 228.13322,34.5523691 227.32964,34.2119739 C225.550285,33.4229474 222.795154,31.5594015 221.819379,30.542922 C221.245393,29.92174 221.417589,28.8487894 222.048973,28.338981 C224.402314,26.6448484 229.338589,22.9177567 234.046865,16.7059373 C238.064764,11.3976552 238.796596,9.48861874 239.483784,7.90742833 C239.772371,7.22820665 240.63335,7.00389095 241.322132,7.22820665 C243.158886,7.85095724 246.373205,9.60156091 247.578575,10.4486272 C248.15256,10.9003959 248.382155,11.63452 248.037763,12.255702 C247.635973,13.1027682 247.076337,13.7694408 246.330156,14.8423914 C246.043163,15.2941601 246.387555,15.858871 246.905736,15.858871 L257.46707,15.858871 C260.738788,15.858871 263.03473,18.2871277 262.460745,21.5624507 C261.657165,26.5883773 259.016831,32.5178414 255.974708,36.9241547" id="Fill-25" fill="#000000"></path>
                <path d="M101.804651,25.9990772 C101.804651,26.1179609 101.790436,26.2320893 101.769903,26.3430474 C101.769903,26.3525581 101.765165,26.363654 101.765165,26.3731647 L99.0485211,39.1856595 L97.0931693,48.4411535 L94.2312165,61.9415888 L94.204366,62.052547 C94.0211505,62.8260837 93.3182978,63.4046512 92.4906691,63.4046512 L31.5888827,63.4046512 C14.1407633,63.4046512 -2.64387995e-13,49.2131051 -2.64387995e-13,31.7023256 C-2.64387995e-13,14.1947163 14.1407633,1.58632797e-14 31.5888827,1.58632797e-14 L91.348731,1.58632797e-14 C92.3279864,1.58632797e-14 93.1177084,0.797313488 93.1177084,1.77374512 C93.1177084,1.89262884 93.1034934,2.01151256 93.0829606,2.12564093 C93.0829606,2.13039628 93.0829606,2.13832186 93.0782223,2.14783256 L90.6679906,13.5257972 L90.6427195,13.6351702 C90.4579245,14.4102921 89.7566513,14.9872744 88.9274431,14.9872744 L32.0800898,14.9872744 C31.9221454,14.9745935 31.764201,14.9650828 31.6062566,14.9650828 L31.5888827,14.9650828 C31.4183027,14.9650828 31.2461433,14.9745935 31.0803017,14.9967851 C22.2922745,15.2614995 15.2163648,22.3533098 14.9383826,31.1649712 C14.9162704,31.3409191 14.9067937,31.5200372 14.9067937,31.7023256 C14.9067937,31.8814437 14.9162704,32.062147 14.9383826,32.23968 C15.2163648,41.0450009 22.2733212,48.1288856 31.0487128,48.4126214 C31.2240311,48.4332279 31.4056672,48.4411535 31.5888827,48.4411535 L83.276192,48.4411535 L85.2331233,39.1856595 L32.1116787,39.1856595 C32.0721926,39.1824893 32.0358654,39.177734 31.9979587,39.177734 C31.8700238,39.165053 31.7389299,39.1602977 31.6062566,39.1602977 L31.5888827,39.1602977 C31.4625272,39.1602977 31.3298539,39.165053 31.2082367,39.177734 L31.2034983,39.177734 C27.2627852,38.9764242 24.1339064,35.7031591 24.1339064,31.7023256 C24.1339064,27.5715126 27.4696924,24.2205767 31.5888827,24.2205767 L100.035674,24.2205767 C101.014929,24.2205767 101.804651,25.0178902 101.804651,25.9990772" id="Fill-30" fill="#F4A739"></path>
            </g>
        </g>
    </g>
</svg>