<?xml version="1.0" encoding="UTF-8"?>
<svg width="439px" height="88px" viewBox="0 0 439 88" version="1.1" xmlns="http://www.w3.org/2000/svg" xmlns:xlink="http://www.w3.org/1999/xlink">
    <title>Group 2</title>
    <defs>
        <polygon id="path-1" points="0 0 136.217082 0 136.217082 87.1578947 0 87.1578947"></polygon>
        <polygon id="path-3" points="0.00608018924 0.00557275542 106.099302 0.00557275542 106.099302 18.9417957 0.00608018924 18.9417957"></polygon>
    </defs>
    <g id="Logo" stroke="none" stroke-width="1" fill="none" fill-rule="evenodd">
        <g id="Group-2">
            <g id="Group">
                <path d="M232.776,23.918 L232.776,14.556 L227.444,14.556 L227.444,23.918 L232.776,23.918 Z M224.84,23.918 L224.84,14.556 L219.508,14.556 L219.508,23.918 L224.84,23.918 Z M212.068,72.65 L210.456,55.166 L233.706,55.166 L233.706,47.292 L209.712,47.292 L208.596,34.458 L231.04,34.458 L231.04,26.522 L207.852,26.522 L206.984,16.354 L198.304,16.354 L199.234,26.522 L178.65,26.522 L178.65,34.458 L199.854,34.458 L201.032,47.292 L176.356,47.292 L176.356,55.166 L201.714,55.166 L203.264,72.65 L212.068,72.65 Z M276.874,72.65 L276.874,32.598 L299.256,32.598 L299.256,24.848 L296.28,24.848 C298.264,23.856 299.566,21.872 299.566,19.516 C299.566,16.23 296.962,13.564 293.676,13.564 C290.452,13.564 287.724,16.23 287.724,19.516 C287.724,21.872 289.088,23.856 291.072,24.848 L276.874,24.848 L276.874,16.416 L268.442,16.416 L268.442,24.848 L246.246,24.848 L246.246,32.598 L268.442,32.598 L268.442,72.65 L276.874,72.65 Z M293.676,22.368 C292.126,22.368 290.824,21.19 290.824,19.516 C290.824,17.966 292.126,16.726 293.676,16.726 C295.226,16.726 296.59,17.966 296.59,19.516 C296.59,21.19 295.226,22.368 293.676,22.368 Z M300.434,69.86 L300.434,60.56 C295.35,56.034 292.374,47.478 291.816,37.372 L283.57,37.372 C284.438,51.942 288.778,64.032 300.434,69.86 Z M245.254,69.86 C256.6,64.032 260.816,51.942 261.746,37.372 L253.686,37.372 C253.128,47.478 250.276,56.034 245.254,60.56 L245.254,69.86 Z M318.784,71.844 C353.876,68.186 364.726,46.734 365.78,19.764 L365.78,18.958 L324.426,18.958 C321.822,26.584 316.676,33.528 310.972,37 L310.972,45.866 C315.498,43.944 319.528,40.844 322.876,37.31 L322.876,44.254 C330.936,45.122 339.616,46.61 348.296,48.842 C342.344,56.592 332.92,61.676 318.784,63.846 L318.784,71.844 Z M352.574,41.588 C343.026,39.108 333.168,37.558 323.682,36.442 C326.348,33.404 328.518,30.118 330.192,26.832 L356.418,26.832 C355.736,32.288 354.496,37.248 352.574,41.588 Z M400.98,71.658 C421.564,69.798 431.608,56.964 432.848,34.954 L424.416,34.954 C423.486,47.478 419.022,57.77 409.35,60.87 L409.35,18.462 L400.98,18.462 L400.98,71.658 Z M376.676,72.898 C386.224,67.07 393.54,58.204 393.54,34.768 L393.54,18.524 L385.17,18.524 L385.17,35.388 C385.17,52.872 380.954,58.762 376.676,63.102 L376.676,72.898 Z" id="ギポタル" fill="#282D2E" fill-rule="nonzero"></path>
                <g id="Group-2-Copy-4">
                    <g id="Group-35">
                        <path d="M18.971138,40.7763158 C18.9651204,41.0766719 18.9591028,41.3770281 18.9591028,41.6842105 C18.9591028,41.991393 18.9651204,42.2917491 18.971138,42.5921053 C18.9410499,42.2985754 18.9235988,41.991393 18.9235988,41.6842105 C18.9235988,41.3770281 18.9410499,41.0698457 18.971138,40.7763158" id="Fill-1" fill="#2F5F70"></path>
                        <path d="M45.4736842,18.9594737 C45.1671217,18.9594737 44.8744939,18.9655263 44.5748988,18.9715789 C44.8675266,18.9413158 45.1671217,18.9231579 45.4736842,18.9231579 C45.74541,18.9231579 46.0101685,18.9352632 46.274927,18.9594737 C46.3097637,18.9655263 46.3446003,18.9655263 46.3724696,18.9715789 C46.0728745,18.9655263 45.7802467,18.9594737 45.4736842,18.9594737" id="Fill-3" fill="#2F5F70"></path>
                        <path d="M46.3724696,68.1863158 C46.0818849,68.2165789 45.7777845,68.2347368 45.4736842,68.2347368 C45.1695839,68.2347368 44.8654835,68.2165789 44.5748988,68.1863158 C44.8722413,68.1923684 45.1695839,68.1984211 45.4736842,68.1984211 C45.7777845,68.1984211 46.0751271,68.1923684 46.3724696,68.1863158" id="Fill-5" fill="#2F5F70"></path>
                        <path d="M18.971138,40.7763158 C18.9651204,41.0766719 18.9591028,41.3770281 18.9591028,41.6842105 C18.9591028,41.991393 18.9651204,42.2917491 18.971138,42.5921053 C18.9410499,42.2985754 18.9235988,41.991393 18.9235988,41.6842105 C18.9235988,41.3770281 18.9410499,41.0698457 18.971138,40.7763158" id="Fill-7" fill="#2F5F70"></path>
                        <path d="M45.4736842,18.9594737 C45.1671217,18.9594737 44.8744939,18.9655263 44.5748988,18.9715789 C44.8675266,18.9413158 45.1671217,18.9231579 45.4736842,18.9231579 C45.74541,18.9231579 46.0101685,18.9352632 46.274927,18.9594737 C46.3097637,18.9655263 46.3446003,18.9655263 46.3724696,18.9715789 C46.0728745,18.9655263 45.7802467,18.9594737 45.4736842,18.9594737" id="Fill-9" fill="#2F5F70"></path>
                        <path d="M46.3724696,68.1863158 C46.0818849,68.2165789 45.7777845,68.2347368 45.4736842,68.2347368 C45.1695839,68.2347368 44.8654835,68.2165789 44.5748988,68.1863158 C44.8722413,68.1923684 45.1695839,68.1984211 45.4736842,68.1984211 C45.7777845,68.1984211 46.0751271,68.1923684 46.3724696,68.1863158" id="Fill-11" fill="#2F5F70"></path>
                        <path d="M46.3724696,18.9715789 C46.0728745,18.9655263 45.7802467,18.9594737 45.4736842,18.9594737 C45.1671217,18.9594737 44.8744939,18.9655263 44.5748988,18.9715789 C44.8675266,18.9413158 45.1671217,18.9231579 45.4736842,18.9231579 C45.74541,18.9231579 46.0094718,18.9352632 46.274927,18.9594737 C46.3097637,18.9655263 46.3446003,18.9655263 46.3724696,18.9715789" id="Fill-13" fill="#2F5F70"></path>
                        <path d="M46.3724696,68.1863158 C46.0818849,68.2165789 45.7777845,68.2347368 45.4736842,68.2347368 C45.1695839,68.2347368 44.8654835,68.2165789 44.5748988,68.1863158 C44.8722413,68.1923684 45.1695839,68.1984211 45.4736842,68.1984211 C45.7777845,68.1984211 46.0751271,68.1923684 46.3724696,68.1863158" id="Fill-15" fill="#2F5F70"></path>
                        <path d="M18.9594037,45.4736842 C18.9594037,45.7808666 18.9654213,46.0812228 18.9714389,46.3815789 C18.9413508,46.0880491 18.9232979,45.7808666 18.9232979,45.4736842 C18.9232979,45.1665018 18.9413508,44.8593194 18.9714389,44.5657895 C18.9654213,44.8661456 18.9594037,45.1665018 18.9594037,45.4736842" id="Fill-17" fill="#2F5F70"></path>
                        <g id="Group-21">
                            <mask id="mask-2" fill="white">
                                <use xlink:href="#path-1"></use>
                            </mask>
                            <g id="Clip-20"></g>
                        </g>
                        <path d="M18.971138,40.7763158 C18.9651204,41.0766719 18.9591028,41.3770281 18.9591028,41.6842105 C18.9591028,41.991393 18.9651204,42.2917491 18.971138,42.5921053 C18.9410499,42.2985754 18.9235988,41.991393 18.9235988,41.6842105 C18.9235988,41.3770281 18.9410499,41.0698457 18.971138,40.7763158" id="Fill-22" fill="#2F5F70"></path>
                        <path d="M45.4736842,18.9594737 C45.1671217,18.9594737 44.8744939,18.9655263 44.5748988,18.9715789 C44.8675266,18.9413158 45.1671217,18.9231579 45.4736842,18.9231579 C45.74541,18.9231579 46.0101685,18.9352632 46.274927,18.9594737 C46.3097637,18.9655263 46.3446003,18.9655263 46.3724696,18.9715789 C46.0728745,18.9655263 45.7802467,18.9594737 45.4736842,18.9594737" id="Fill-24" fill="#2F5F70"></path>
                        <path d="M46.3724696,68.1863158 C46.0818849,68.2165789 45.7777845,68.2347368 45.4736842,68.2347368 C45.1695839,68.2347368 44.8654835,68.2165789 44.5748988,68.1863158 C44.8722413,68.1923684 45.1695839,68.1984211 45.4736842,68.1984211 C45.7777845,68.1984211 46.0751271,68.1923684 46.3724696,68.1863158" id="Fill-26" fill="#2F5F70"></path>
                        <g id="Group-30" transform="translate(34.105263, 34.105263)">
                            <mask id="mask-4" fill="white">
                                <use xlink:href="#path-3"></use>
                            </mask>
                            <g id="Clip-29"></g>
                        </g>
                        <path d="M42.0843822,68.1863158 C41.8256246,68.2165789 41.5548317,68.2347368 41.2840389,68.2347368 L41.2840389,68.1984211 C41.5548317,68.1984211 41.819607,68.1923684 42.0843822,68.1863158" id="Fill-31" fill="#2F5F70"></path>
                        <path d="M42.072347,18.9534211 C41.8135893,18.9473684 41.5608493,18.9413158 41.2960741,18.9413158 L41.9881003,18.9413158 C42.0181884,18.9473684 42.0482765,18.9473684 42.072347,18.9534211" id="Fill-33" fill="#2F5F70"></path>
                    </g>
                    <path d="M43.2698732,87.1578947 C19.8799729,87.1578947 0.823093717,68.4613158 0.0298083005,45.1042105 C0.0237985625,45.0678947 0.0237985625,45.0315789 0.0237985625,44.9952632 C0.0183897983,44.9347368 0.0183897983,44.8802632 0.0183897983,44.8197368 C0.00576934848,44.4081579 -0.000240389521,43.9905263 -0.000240389521,43.5789474 C-0.000240389521,43.1673684 0.00576934848,42.7497368 0.0183897983,42.3381579 C0.0183897983,42.2776316 0.0183897983,42.2231579 0.0237985625,42.1626316 C0.0237985625,42.1263158 0.0237985625,42.09 0.0298083005,42.0536842 C0.823093717,18.6965789 19.8799729,1.80627443e-13 43.2698732,1.80627443e-13 L136.217082,1.80627443e-13 L131.64394,20.6031579 L43.9615941,20.6031579 C43.732623,20.5789474 43.504253,20.5668421 43.2698732,20.5668421 C43.0054447,20.5668421 42.747026,20.585 42.494617,20.6152632 L42.4705781,20.6152632 C30.5051897,21.0328947 20.8835992,30.7231579 20.4689272,42.7739474 C20.4388786,43.0342105 20.4214503,43.3065789 20.4214503,43.5789474 C20.4214503,43.8513158 20.4388786,44.1236842 20.4689272,44.3839474 C20.8835992,56.4347368 30.5051897,66.125 42.4705781,66.5426316 C42.7289968,66.5728947 42.999435,66.5910526 43.2698732,66.5910526 L121.58576,66.591 L124.29476,53.047 L44.2390311,53.0470588 C38.6476414,53.0470588 34.1113433,48.806192 34.1113433,43.5789474 C34.1113433,38.3517028 38.6476414,34.1108359 44.2390311,34.1108359 L128.08276,34.11 L128.084211,34.1052632 L144,34.1052632 L133.389474,87.1578947 L43.2698732,87.1578947 Z" id="Combined-Shape" fill="#E7A034" fill-rule="nonzero"></path>
                </g>
            </g>
        </g>
    </g>
</svg>