<svg width="277" height="53" xmlns="http://www.w3.org/2000/svg" xmlns:xlink="http://www.w3.org/1999/xlink"><defs><path id="b" d="M0 .555h52.873v51.12H0z"/><path id="d" d="M0 52.324h277v-52H0z"/><filter id="a"><feColorMatrix in="SourceGraphic" values="0 0 0 0 0.106459 0 0 0 0 0.099002 0 0 0 0 0.088012 0 0 0 1.000000 0"/></filter></defs><g filter="url(#a)" transform="translate(-502 -610)" fill="none" fill-rule="evenodd"><g transform="translate(502 610)"><g transform="translate(0 .324)"><mask id="c" fill="#fff"><use xlink:href="#b"/></mask><path d="M34.228 32.104c1.247 1.856 1.587 2.306 2.664 3.374 1.246-1.068 1.586-1.462 3.23-3.374h-5.894zM48.111.554V14.39h1.135c1.077 0 2.04-.507 3.627-1.8v8.324c-1.417 1.181-2.89 1.573-6.12 1.63H44.03c-3.683-.057-4.306-.674-4.193-4.498V8.596h-5.723c-.17 9.898-2.493 12.824-12.355 15.804v-8.55c3.344-.843 4.534-3.43 4.422-9.503V.555h21.93zm-27.144 42.18c3.287-.451 6.913-1.574 8.898-2.87-2.04-2.417-2.437-3.092-4.818-7.76H22.95v-7.31h27.77v6.523c-2.267 3.824-3.402 5.342-6.405 8.716 3.74 1.633 5.611 2.195 8.274 2.476v9.167c-6.518-1.125-11.05-2.812-15.924-5.849-4.193 2.7-9.52 4.611-15.698 5.68v-8.773zm-12.07.673h3.74v-3.824h-3.74v3.824zM2.041 32.048h17.511v-6.523H2.041v6.523zm0-8.21h17.511v-6.355H2.041v6.355zM1.756 7.303h17.851V.891H1.756v6.412zM20.4 33.229v10.347c.172 5.4-1.7 7.2-7.593 7.312H1.19v-17.66H20.4zM0 15.794h21.42V8.878H0v6.916z" fill="#231916" mask="url(#c)"/></g><mask id="e" fill="#fff"><use xlink:href="#d"/></mask><path d="M73.493 24.624h19.24v-2.611h-19.24v2.611zm-3.3 19.303h25.224V40.35H70.193v3.577zm-3.19-28.16h31.322V13.04H67.004v2.725zm-2.74-10.05L60.854.324H71.2l3.355 5.393h3.691L75.115.324H85.18l3.245 5.393h3.58L94.41.324h10.85l-3.244 5.393H108v10.9h-5.648v6.872c.055 5.28-2.014 7.38-7.327 7.267h-6.878l-1.51 2.44h18.623v10.901c-.224 6.19-1.734 7.382-9.116 7.212H60.852V33.197h15.381l1.119-2.441H63.928V16.618H58v-10.9h6.264zM141.776 27.187h5.51v-1.895h-5.51v1.895zm0-7.635h5.51v-2.007h-5.51v2.007zm0-7.414h5.51v-1.951h-5.51v1.95zm-12.313 8.974c-.843 8.249-5.622 13.209-14.17 14.77v-8.695c3.599-1.003 5.341-2.898 5.623-6.075h8.547zm-.9-1.172c-2.081-.333-2.248-.333-4.555-.667-4.104-.502-4.217-.502-6.747-.838l-1.968-.222v-7.58c5.791.557 10.908 1.226 13.27 1.672v7.635zm0-9.474c-2.417-.502-7.985-1.282-13.27-1.84V1.324c3.43.336 5.679.559 6.749.67 1.012.112 2.81.333 6.522.835v7.637zm6.466 26.14v-2.843h-2.417V18.548l-2.193 1.448v-9.307c2.867-2.23 5.229-5.574 6.578-9.308h9.672l-1.688 2.843h4.724l1.575-2.843h9.895l-2.136 2.843h5.06v5.963h-8.265v1.95h7.59v5.408h-7.59v2.007h7.59v5.74h-7.59v1.895h8.658v6.576h-19.904v2.843H165v7.414h-20.412v8.304h-9.559V44.02H114v-7.414h21.03zM209.093 43.675h3.541v-2.022h-3.54v2.022zm0-7.64h3.541v-1.741h-3.54v1.74zm0-6.347h3.541v-1.797h-3.54v1.797zm-7.88-17.019h6.11v-1.797h-6.11v1.797zm-3.943 23.366h3.77v-1.741h-3.77v1.74zm0-6.347h3.77v-1.797h-3.77v1.797zM169 19.354c4.454-4.831 7.253-10.448 9.08-18.03h9.14l-.4 2.247h5.653V1.324h8.74v2.247h6.11V1.324h8.68v2.247H222v7.3h-5.996v1.798h5.939l.057 6.966h-27.87v2.022h26.958v22.746c.112 5.394-1.6 7.19-7.026 7.64h-4.683v-2.977h-8.34v-7.413h-3.769v10.671h-7.71v-7.92c-2.227 4.382-3.997 6.235-6.797 7.021V40.247c1.886-2.022 2.686-4.718 2.686-9.267V12.67h7.024v-1.798h-7.995c-.97 2.527-1.313 3.314-2.457 5.11V52.1h-8.91V27.78c-1.827 1.685-2.512 2.19-4.111 3.145v-11.57zM257.3 28.868h9.437V17.304h-9.438v11.564zm-20.182 0h9.665V17.304h-9.665v11.564zm9.665-20.445V.324h10.518v8.1h19.667v20.668c.285 6.2-1.307 8.322-6.593 8.713H257.3v13.519h-10.518V37.805H227V8.423h19.783z" fill="#231916" mask="url(#e)"/></g></g></svg>